<?xml version="1.0" encoding="UTF-8"?>
<svg xmlns="http://www.w3.org/2000/svg" version="1.1" viewBox="0 0 720.2 305.9">
  <defs>
    <style>
      .cls-1 {
      fill: #bce6fb;
      }

      .cls-2 {
      fill: #4991ce;
      }

      .cls-3 {
      isolation: isolate;
      }
    </style>
  </defs>
  <g class="cls-3">
    <g class="cls-3">
      <path class="cls-2" d="M309.4,190.4h-5.8v3.2h5.5v4.1h-5.5v3.2h5.8v4.2h-10.7v-18.8h10.7v4.1Z" />
    </g>
    <g class="cls-3">
      <path class="cls-2"
        d="M312.7,193.2h2.8v1.1c1-1,2-1.4,3.2-1.4s2.5.4,3.2,1.3c.7.7,1,1.9,1,3.6v7.3h-2.8v-6.6c0-1.2-.2-2-.5-2.4-.3-.5-.9-.7-1.7-.7s-1.6.3-1.9.9c-.4.6-.6,1.6-.6,3.1v5.7h-2.8v-11.9Z" />
    </g>
    <g class="cls-3">
      <path class="cls-2" d="M332.8,201.3h5.4v3.8h-13l6.1-9h-5.2v-3.8h12.8l-6,9Z" />
    </g>
    <g class="cls-3">
      <path class="cls-2" d="M344.8,202.9l-5.3-9.7h3.2l3.6,6.8,3.4-6.8h3.1l-9.5,18.4h-3.1l4.6-8.7Z" />
      <path class="cls-2"
        d="M354.7,193.2h2.7v1.1c.5-.6,1-.9,1.4-1.1.4-.2.9-.3,1.5-.3,1.3,0,2.4.6,3.2,1.8.9-1.2,2-1.8,3.5-1.8,2.7,0,4,1.6,4,4.9v7.3h-2.8v-6.6c0-1.1-.1-1.9-.4-2.4-.3-.5-.8-.7-1.4-.7s-1.3.3-1.7.9c-.3.6-.5,1.5-.5,2.7v6.1h-2.8v-6.6c0-2.1-.6-3.2-1.8-3.2s-1.3.3-1.7.9c-.4.6-.5,1.5-.5,2.7v6.1h-2.7v-11.9Z" />
      <path class="cls-2"
        d="M385.3,199.8h-8.5c0,1,.4,1.8,1,2.3.6.6,1.3.9,2.2.9s1.2-.2,1.7-.5c.4-.3.9-.9,1.5-1.8l2.3,1.3c-.4.6-.7,1.1-1.1,1.6s-.8.8-1.3,1.1c-.5.3-.9.5-1.5.6s-1.1.2-1.7.2c-1.8,0-3.2-.6-4.3-1.7-1.1-1.1-1.6-2.7-1.6-4.6s.5-3.4,1.6-4.6c1-1.1,2.4-1.7,4.2-1.7s3.1.6,4.2,1.7c1,1.1,1.5,2.6,1.5,4.6v.6ZM382.5,197.5c-.4-1.5-1.3-2.2-2.8-2.2s-.6,0-.9.2c-.3.1-.6.2-.8.4-.2.2-.4.4-.6.7-.2.3-.3.6-.4.9h5.5Z" />
    </g>
    <g class="cls-3">
      <path class="cls-2"
        d="M406.6,191.1c-.5-.4-1.1-.8-1.6-1-.5-.2-1.1-.3-1.6-.3s-1.1.1-1.5.5c-.4.3-.6.7-.6,1.2s0,.6.3.8.5.4.8.6c.3.2.7.3,1.1.4.4.1.8.2,1.2.4,1.6.5,2.8,1.2,3.5,2.1s1.1,2.1,1.1,3.5-.2,1.8-.5,2.6-.8,1.5-1.4,2-1.4,1-2.3,1.3c-.9.3-1.9.5-3.1.5-2.4,0-4.6-.7-6.6-2.1l2.1-4c.7.6,1.5,1.1,2.2,1.5.7.3,1.4.5,2.1.5s1.4-.2,1.8-.5.6-.8.6-1.2,0-.5-.2-.7c0-.2-.3-.4-.5-.6s-.5-.3-.9-.5c-.4-.2-.8-.3-1.4-.5-.6-.2-1.3-.4-1.9-.7-.6-.2-1.1-.6-1.6-1-.5-.4-.9-.9-1.1-1.5-.3-.6-.4-1.4-.4-2.3s.2-1.8.5-2.5c.3-.8.7-1.4,1.3-1.9.6-.5,1.2-1,2-1.3.8-.3,1.7-.5,2.7-.5s1.9.1,2.9.4c1,.3,2,.6,2.9,1.1l-2,3.8Z" />
    </g>
    <g class="cls-3">
      <path class="cls-2"
        d="M423,199.8h-8.5c0,1,.4,1.8,1,2.3.6.6,1.3.9,2.2.9s1.2-.2,1.7-.5c.4-.3.9-.9,1.5-1.8l2.3,1.3c-.4.6-.7,1.1-1.1,1.6s-.8.8-1.3,1.1c-.5.3-.9.5-1.5.6s-1.1.2-1.7.2c-1.8,0-3.2-.6-4.3-1.7-1.1-1.1-1.6-2.7-1.6-4.6s.5-3.4,1.6-4.6c1-1.1,2.4-1.7,4.2-1.7s3.1.6,4.2,1.7c1,1.1,1.5,2.6,1.5,4.6v.6ZM420.2,197.5c-.4-1.5-1.3-2.2-2.8-2.2s-.6,0-.9.2c-.3.1-.6.2-.8.4-.2.2-.4.4-.6.7-.2.3-.3.6-.4.9h5.5Z" />
    </g>
    <g class="cls-3">
      <path class="cls-2"
        d="M434.7,211.6v-7.8c-1.1,1.1-2.3,1.7-3.7,1.7s-2.9-.6-4-1.8c-1.1-1.2-1.6-2.7-1.6-4.5s.5-3.3,1.6-4.5c1.1-1.2,2.4-1.8,4-1.8s2.6.5,3.7,1.6v-1.3h2.8v18.4h-2.8ZM428.2,199.1c0,1.1.3,2.1.9,2.8.6.7,1.4,1.1,2.4,1.1s1.8-.4,2.5-1.1c.6-.7,1-1.6,1-2.8s-.3-2-.9-2.8c-.6-.7-1.4-1.1-2.4-1.1s-1.7.4-2.4,1.1c-.6.7-.9,1.6-.9,2.7Z" />
    </g>
    <g class="cls-3">
      <path class="cls-2"
        d="M444,193.2v6.8c0,2,.8,3,2.3,3s2.3-1,2.3-3v-6.8h2.7v6.9c0,1-.1,1.8-.4,2.5-.2.6-.6,1.2-1.2,1.7-.9.8-2.1,1.2-3.5,1.2s-2.6-.4-3.5-1.2c-.6-.5-1-1.1-1.2-1.7-.2-.6-.3-1.4-.3-2.5v-6.9h2.7Z" />
      <path class="cls-2"
        d="M465.7,199.8h-8.5c0,1,.4,1.8,1,2.3.6.6,1.3.9,2.2.9s1.2-.2,1.7-.5c.4-.3.9-.9,1.5-1.8l2.3,1.3c-.4.6-.7,1.1-1.1,1.6-.4.4-.8.8-1.3,1.1-.5.3-.9.5-1.5.6-.5.1-1.1.2-1.7.2-1.8,0-3.2-.6-4.3-1.7-1.1-1.1-1.6-2.7-1.6-4.6s.5-3.4,1.6-4.6c1-1.1,2.4-1.7,4.2-1.7s3.1.6,4.2,1.7c1,1.1,1.5,2.6,1.5,4.6v.6ZM462.9,197.5c-.4-1.5-1.3-2.2-2.8-2.2s-.6,0-.9.2c-.3.1-.6.2-.8.4-.2.2-.4.4-.6.7-.2.3-.3.6-.4.9h5.5Z" />
      <path class="cls-2"
        d="M468.7,193.2h2.8v1.1c1-1,2-1.4,3.2-1.4s2.5.4,3.2,1.3c.7.7,1,1.9,1,3.6v7.3h-2.8v-6.6c0-1.2-.2-2-.5-2.4-.3-.5-.9-.7-1.7-.7s-1.6.3-1.9.9c-.4.6-.6,1.6-.6,3.1v5.7h-2.8v-11.9Z" />
      <path class="cls-2"
        d="M491.7,193.7v3.7c-.6-.8-1.2-1.3-1.7-1.6-.5-.3-1.1-.4-1.7-.4-1,0-1.9.4-2.6,1.1-.7.7-1,1.6-1,2.7s.3,2,1,2.7c.7.7,1.5,1.1,2.6,1.1s1.2-.1,1.7-.4c.5-.3,1.1-.8,1.7-1.6v3.6c-1.1.6-2.2.9-3.3.9-1.8,0-3.4-.6-4.6-1.8-1.2-1.2-1.9-2.7-1.9-4.5s.6-3.3,1.9-4.5,2.8-1.8,4.6-1.8,2.3.3,3.3.8Z" />
      <path class="cls-2"
        d="M505.1,199.8h-8.5c0,1,.4,1.8,1,2.3.6.6,1.3.9,2.2.9s1.2-.2,1.7-.5c.4-.3.9-.9,1.5-1.8l2.3,1.3c-.4.6-.7,1.1-1.1,1.6-.4.4-.8.8-1.3,1.1-.5.3-.9.5-1.5.6-.5.1-1.1.2-1.7.2-1.8,0-3.2-.6-4.3-1.7-1.1-1.1-1.6-2.7-1.6-4.6s.5-3.4,1.6-4.6c1-1.1,2.4-1.7,4.2-1.7s3.1.6,4.2,1.7c1,1.1,1.5,2.6,1.5,4.6v.6ZM502.3,197.5c-.4-1.5-1.3-2.2-2.8-2.2s-.6,0-.9.2c-.3.1-.6.2-.8.4-.2.2-.4.4-.6.7-.2.3-.3.6-.4.9h5.5Z" />
    </g>
    <g class="cls-3">
      <path class="cls-2" d="M526.8,190.4h-5.8v3.2h5.5v4.1h-5.5v3.2h5.8v4.2h-10.7v-18.8h10.7v4.1Z" />
    </g>
    <g class="cls-3">
      <path class="cls-2" d="M531.6,193.2l3.1,6.7,3.1-6.7h3.1l-6.2,12.7-6.1-12.7h3.1Z" />
    </g>
    <g class="cls-3">
      <path class="cls-2"
        d="M541.6,199.1c0-1.7.6-3.2,1.8-4.4,1.2-1.2,2.7-1.8,4.5-1.8s3.3.6,4.5,1.8c1.2,1.2,1.8,2.7,1.8,4.5s-.6,3.3-1.8,4.5c-1.2,1.2-2.8,1.8-4.6,1.8s-3.3-.6-4.5-1.8c-1.2-1.2-1.8-2.7-1.8-4.5ZM544.4,199.1c0,1.2.3,2.1,1,2.8.7.7,1.5,1.1,2.6,1.1s1.9-.3,2.6-1,1-1.6,1-2.8-.3-2.1-1-2.8c-.7-.7-1.5-1-2.6-1s-1.9.3-2.6,1-1,1.6-1,2.7Z" />
      <path class="cls-2" d="M560,184.5v20.6h-2.7v-20.6h2.7Z" />
      <path class="cls-2"
        d="M566.2,193.2v6.8c0,2,.8,3,2.3,3s2.3-1,2.3-3v-6.8h2.7v6.9c0,1-.1,1.8-.4,2.5-.2.6-.6,1.2-1.2,1.7-.9.8-2.1,1.2-3.5,1.2s-2.6-.4-3.5-1.2c-.6-.5-1-1.1-1.2-1.7-.2-.6-.3-1.4-.3-2.5v-6.9h2.7Z" />
      <path class="cls-2" d="M579.9,195.8v9.3h-2.7v-9.3h-1.2v-2.6h1.2v-4.4h2.7v4.4h2.1v2.6h-2.1Z" />
      <path class="cls-2"
        d="M583.5,188.3c0-.5.2-.9.5-1.2.3-.4.8-.5,1.3-.5s.9.2,1.3.5c.3.3.5.8.5,1.3s-.2.9-.5,1.3c-.3.3-.8.5-1.3.5s-.9-.2-1.3-.5-.5-.8-.5-1.3ZM586.7,193.2v11.9h-2.7v-11.9h2.7Z" />
      <path class="cls-2"
        d="M589.6,199.1c0-1.7.6-3.2,1.8-4.4,1.2-1.2,2.7-1.8,4.5-1.8s3.3.6,4.5,1.8c1.2,1.2,1.8,2.7,1.8,4.5s-.6,3.3-1.8,4.5c-1.2,1.2-2.8,1.8-4.6,1.8s-3.3-.6-4.5-1.8c-1.2-1.2-1.8-2.7-1.8-4.5ZM592.4,199.1c0,1.2.3,2.1,1,2.8.7.7,1.5,1.1,2.6,1.1s1.9-.3,2.6-1c.6-.7,1-1.6,1-2.8s-.3-2.1-1-2.8c-.7-.7-1.5-1-2.6-1s-1.9.3-2.6,1c-.7.7-1,1.6-1,2.7Z" />
      <path class="cls-2"
        d="M605.2,193.2h2.8v1.1c1-1,2-1.4,3.2-1.4s2.5.4,3.2,1.3c.7.7,1,1.9,1,3.6v7.3h-2.8v-6.6c0-1.2-.2-2-.5-2.4-.3-.5-.9-.7-1.7-.7s-1.6.3-1.9.9c-.4.6-.6,1.6-.6,3.1v5.7h-2.8v-11.9Z" />
    </g>
    <g class="cls-3">
      <path class="cls-2"
        d="M638.4,201.8h-7l-1.1,3.3h-5.2l7.2-18.8h5.4l7.2,18.8h-5.2l-1.1-3.3ZM637.1,198.1l-2.2-6.3-2.2,6.3h4.4Z" />
    </g>
    <g class="cls-3">
      <path class="cls-2"
        d="M646.6,193.2h2.8v1.1c1-1,2-1.4,3.2-1.4s2.5.4,3.2,1.3c.7.7,1,1.9,1,3.6v7.3h-2.8v-6.6c0-1.2-.2-2-.5-2.4-.3-.5-.9-.7-1.7-.7s-1.6.3-1.9.9c-.4.6-.6,1.6-.6,3.1v5.7h-2.8v-11.9Z" />
      <path class="cls-2"
        d="M669.1,193.2h2.8v11.9h-2.8v-1.2c-1.1,1.1-2.3,1.6-3.6,1.6s-3-.6-4.1-1.8c-1.1-1.2-1.6-2.7-1.6-4.5s.5-3.3,1.6-4.5c1.1-1.2,2.4-1.8,4-1.8s2.6.6,3.7,1.7v-1.4ZM662.6,199.1c0,1.1.3,2.1.9,2.8.6.7,1.4,1.1,2.4,1.1s1.8-.4,2.5-1.1c.6-.7.9-1.6.9-2.8s-.3-2-.9-2.8c-.6-.7-1.4-1.1-2.4-1.1s-1.7.4-2.4,1.1c-.6.7-.9,1.6-.9,2.7Z" />
    </g>
    <g class="cls-3">
      <path class="cls-2" d="M678.1,184.5v20.6h-2.7v-20.6h2.7Z" />
    </g>
    <g class="cls-3">
      <path class="cls-2" d="M685.5,202.9l-5.3-9.7h3.2l3.6,6.8,3.4-6.8h3.1l-9.5,18.4h-3.1l4.6-8.7Z" />
      <path class="cls-2"
        d="M702.3,195.2l-2.3,1.2c-.4-.7-.8-1.1-1.3-1.1s-.5,0-.6.3c-.2.2-.3.4-.3.6,0,.5.5.9,1.6,1.4,1.5.6,2.4,1.2,2.9,1.7.5.5.8,1.2.8,2.1s-.4,2.1-1.3,2.9c-.8.7-1.8,1.1-3,1.1-2,0-3.4-1-4.2-2.9l2.3-1.1c.3.6.6.9.7,1.1.3.3.7.5,1.2.5.9,0,1.4-.4,1.4-1.3s-.4-.9-1.1-1.4c-.3-.1-.6-.3-.8-.4s-.6-.3-.8-.4c-.8-.4-1.4-.8-1.7-1.2-.4-.5-.6-1.1-.6-1.9s.4-1.9,1.1-2.6c.7-.7,1.6-1,2.6-1,1.5,0,2.7.8,3.4,2.4Z" />
      <path class="cls-2"
        d="M705.1,188.3c0-.5.2-.9.5-1.2.3-.4.8-.5,1.3-.5s.9.2,1.3.5c.3.3.5.8.5,1.3s-.2.9-.5,1.3c-.3.3-.8.5-1.3.5s-.9-.2-1.3-.5c-.4-.3-.5-.8-.5-1.3ZM708.3,193.2v11.9h-2.7v-11.9h2.7Z" />
      <path class="cls-2"
        d="M718.6,195.2l-2.3,1.2c-.4-.7-.8-1.1-1.3-1.1s-.5,0-.6.3-.3.4-.3.6c0,.5.5.9,1.6,1.4,1.5.6,2.4,1.2,2.9,1.7.5.5.8,1.2.8,2.1s-.4,2.1-1.3,2.9c-.8.7-1.8,1.1-3,1.1-2,0-3.4-1-4.2-2.9l2.3-1.1c.3.6.6.9.7,1.1.3.3.7.5,1.2.5.9,0,1.4-.4,1.4-1.3s-.4-.9-1.1-1.4c-.3-.1-.6-.3-.8-.4-.3-.1-.6-.3-.8-.4-.8-.4-1.4-.8-1.7-1.2-.4-.5-.6-1.1-.6-1.9s.4-1.9,1.1-2.6c.7-.7,1.6-1,2.6-1,1.5,0,2.7.8,3.4,2.4Z" />
    </g>
  </g>
</svg>