<?xml version="1.0" encoding="UTF-8"?>
<svg xmlns="http://www.w3.org/2000/svg" version="1.1" viewBox="0 0 266.9 305.9">
  <defs>
    <style>
      .cls-1 {
        fill: #bce6fb;
      }

      .cls-2 {
        fill: #4991ce;
      }

      @keyframes reveal {
        from {
          width: 0;
        }
        to {
          width: 100%;
        }
      }
    </style>
    <clipPath id="revealClip">
      <rect x="0" y="0" width="0" height="100%" style="animation: reveal 5s linear forwards;"></rect>
    </clipPath>
  </defs>
  <!-- Generator: Adobe Illustrator 28.6.0, SVG Export Plug-In . SVG Version: 1.2.0 Build 709)  -->
  <g clip-path="url(#revealClip)">
    <g id="Layer_1">
      <g>
        <path class="cls-2" d="M25.4,231c-1.4-.9,5.8-23.1,25-40.8,6.1-5.6,30.4-28.2,57.3-24.1,31.3,4.8,31.8,40.5,60.1,42.9,24,2.1,51.9-21.2,62-43.9,3-6.8,4.2-13.1,5.2-12.9,2.1.4,5.2,30.1-10.5,53.9-14.1,21.3-43,37.4-66.8,31.5-27.1-6.8-24.5-37.5-55.3-44.9-21.8-5.2-41.9,4.8-46.3,7.2-21.3,11.6-29.4,31.9-30.8,31.1h0Z"/>
        <path class="cls-1" d="M29.4,246.5c-1-.8,4.2-9.4,7.3-13.8,10.6-14.7,33.5-31.2,55.2-29.2,28.6,2.6,28.4,34.2,60.1,42.9,26.9,7.5,58.8-6.6,74.6-26.9,20.9-26.7,12.8-62.8,15.1-62.8s13.9,36.6-2.3,69.6c-18.2,37.2-67.8,61.9-97.5,48.7-28.7-12.8-24-54.5-50-58.5-15-2.3-38,8.4-51.6,20.8-3.9,3.5-10,9.9-11,9.1h0Z"/>
        <path class="cls-2" d="M30.8,254.9c-1-1.6,8.4-10.4,19.8-17.6,13.7-8.6,30-18.9,43.3-13.7,12.8,4.9,9.8,19.1,26.3,37.9,2.9,3.3,16.2,18.3,33.5,23,32.9,9,74.1-20.9,91.1-54.9,16.3-32.6,8.1-64.7,9.3-64.7,1.5,0,17,49.7-8.2,92.2-1.6,2.6-30,48.7-80.1,48.8-20.3,0-52.1-7.5-64.7-30.2-9.6-17.2-1.7-31.7-11.5-38.4-17-11.6-56.7,20.7-58.7,17.6h0Z"/>
      </g>
    </g>
  </g>
</svg>
