<?xml version="1.0" encoding="UTF-8"?>
<svg id="Layer_1" xmlns="http://www.w3.org/2000/svg" viewBox="0 0 263.12 305.93">
  <defs>
    <style>
      .middle-wave {
        fill: #bce6fb;
      }
      .small-leaf {
        fill: #bce6fb;
      }
      .large-leaf {
        fill: #bce6fb;
      }
      .tree {
        fill: #4991ce;
      }
      .wave {
        fill: #4991ce;
      }
    </style>
  </defs>
  <g>
    <path class="wave" d="M25.38,231.02c-1.41-.89,5.84-23.12,24.96-40.85,6.09-5.65,30.43-28.22,57.31-24.1,31.29,4.79,31.82,40.51,60.12,42.94,23.97,2.06,51.9-21.2,62.03-43.89,3.04-6.82,4.25-13.08,5.25-12.88,2.12.42,5.19,30.11-10.5,53.91-14.05,21.32-42.96,37.44-66.8,31.49-27.06-6.76-24.49-37.48-55.35-44.85-21.81-5.21-41.94,4.79-46.28,7.16-21.28,11.62-29.37,31.94-30.75,31.07Z"/>
    <path class="middle-wave" d="M29.35,246.53c-1.04-.83,4.19-9.44,7.31-13.78,10.6-14.74,33.5-31.17,55.19-29.16,28.59,2.64,28.43,34.17,60.12,42.94,26.95,7.46,58.82-6.65,74.63-26.86,20.86-26.67,12.81-62.78,15.13-62.78,2.33,0,13.93,36.59-2.27,69.59-18.24,37.17-67.83,61.87-97.51,48.68-28.74-12.77-24.03-54.51-50-58.51-15.04-2.32-37.97,8.39-51.63,20.82-3.88,3.53-9.96,9.87-10.97,9.07Z"/>
    <path class="wave" d="M30.75,254.91c-1.03-1.56,8.41-10.44,19.75-17.55,13.72-8.61,30.04-18.86,43.34-13.71,12.79,4.95,9.76,19.11,26.33,37.85,2.89,3.27,16.17,18.29,33.46,23.04,32.91,9.04,74.09-20.87,91.07-54.86,16.29-32.61,8.15-64.72,9.33-64.73,1.46-.02,17.04,49.7-8.23,92.16-1.56,2.63-30.02,48.73-80.09,48.82-20.33.04-52.11-7.49-64.73-30.17-9.6-17.24-1.7-31.69-11.52-38.4-16.98-11.6-56.65,20.68-58.7,17.55Z"/>
    <g>
      <path class="tree" d="M96.49,184.67c1,.06,19.61.94,27.87-12.41,3.38-5.45,6.2-15.19,1.64-21.14-3.27-4.27-8.88-4.63-18.25-5.42-3.88-.32-11.44-.62-22.46,1.75-9.76,2.1-16.65,5.1-23.33,8.05-11.47,5.06-25.23,12.74-34.57,18.61-1.72,1.08-2.17,1.4-2.26,1.3-.42-.49,14.28-18.76,39.08-28.23,1.05-.4,2.02-.75,2.98-1.07,0,0,4.78-1.63,9.79-2.74,9.65-2.16,45.71-6.11,45.75-8.73.03-2.14-24-.59-52.47-12.44-14.95-6.22-21.47-12.12-25.7-17.45-9.33-11.77-10.76-24.95-10.59-25.02.56-.2,2.78,7.09,9.47,15.78,8.46,11,20.05,18.97,22.19,17.13,1.88-1.61-5.58-9.03-7.44-23.15-1.59-12.07,1.87-21.65,2.97-21.65.99,0-2.5,26.44,11.04,42.73.88,1.05,2.2,2.54,4.06,4.13,0,0,2.14,1.83,4.65,3.32,6.32,3.76,41.3,10.42,44.27,1.49.53-1.58-.29-2.62-5.47-10.88-6.46-10.3-10.15-15.83-12.61-20.85-3.97-8.12-7.01-14.35-8.73-23.43-1.98-10.48-.77-17.18-.22-19.68.51-2.34,1.24-4.59,1.57-5.59,2.1-6.45,5.07-12.49,5.59-12.3.52.19-1.73,6.48-2.91,11.63-4.84,21.28,4.23,42.84,7.16,42.5,3.13-.36-2.74-25.5,11.64-48.53,2.63-4.22,7.4-10.36,7.74-10.14.21.14-1.35,2.7-5.21,10.31-.96,1.9-1.66,3.3-2.09,4.17-2.76,5.62-4.15,8.43-4.94,10.76-.33.96-1.31,3.99-1.77,9.94-1.88,23.95,7.6,39.72,7.63,39.76h0c3.32,5.53,12.62,21.04,22.36,20.34,9.01-.64,16.07-14.97,16.83-25.76.07-1.03.12-1.79.07-2.76-.19-3.83-1.71-7.63-5.3-25.03-1.03-4.97-1.75-8.47-2.01-13.29-.75-13.65,2.87-25.09,3.63-24.98.57.08-.82,6.67-.61,16.52.37,17.46,5.71,37.86,10.68,37.86,4.82,0,8.66-19.21,9.5-23.39,2.95-14.76,2.44-26.94,3.39-26.96.57-.01,1.16,4.3,1.43,7.4.48,5.44,1.36,15.24-1.93,27.21-1.27,4.63-2.55,7.35-1.12,8.9.46.5,1.62,1.01,8.86,0,3.35-.47,8.03-1.12,11.28-3.22,8.59-5.56,6.52-21.54,7.85-21.49.71.03,1.33,4.52,1.16,8.81-.16,3.96-.4,10.26-4.13,14.38-3.76,4.16-7.93,2.65-13.99,4.93-13.84,5.2-22.29,24.34-18.39,28.98.7.84,2.15,1.61,11.76-.29,16.63-3.29,30.83-6.1,41.89-17.99,5.56-5.98,7.77-11.51,8.38-11.18.9.48-1.45,13.7-10.85,22.73-11.78,11.31-32.05,13.58-46.99,15.25-1.72.19-4.65.28-8.25,1.64-10.53,4-19.28,15.49-16.82,21.15,2.78,6.4,19.56,4.69,25.04,4.13,41.5-4.22,69.54-35.33,70.36-34.34.7.84-17.28,26.4-46.27,35.12-24.91,7.49-37.36,11.23-37.82,11.26-2.57.17-8.33.18-11.26,4.02-.75.99-2.98,4.39-.15,14.58,4.57,16.4,15.53,26.22,16.69,27.23,5.46,4.77,14.65,12.78,25.91,11.86,7.86-.64,13.58-5.38,14.34-4.27.74,1.1-4.24,6.59-9.32,9.74-13.17,8.15-30.8,2.92-40.67-1.07"/>
      <path class="large-leaf" d="M22.73,175.47c-1.79-1.94-5.7-.96-7.75,0-6.17,2.88-9.37,12.03-7.01,14.39,2.35,2.35,11.35-.91,14.39-7.01.19-.38,2.47-5.1.37-7.38Z"/>
      <path class="large-leaf" d="M19.58,162.12c-.81-2.51-4.76-3.28-7.02-3.27-6.81,0-13.58,6.94-12.43,10.08,1.14,3.12,10.67,3.98,16-.27.33-.27,4.4-3.58,3.45-6.53Z"/>
      <path class="large-leaf" d="M17.14,63.27c-1.94,1.79-.96,5.7,0,7.75,2.88,6.17,12.03,9.37,14.39,7.01,2.35-2.35-.91-11.35-7.01-14.39-.38-.19-5.1-2.47-7.38-.37Z"/>
      <path class="large-leaf" d="M62.74,42.45c-2.62-.33-4.98,2.93-5.94,4.98-2.88,6.17.56,15.24,3.88,15.53,3.31.29,8.11-7.99,6.52-14.62-.1-.42-1.38-5.5-4.46-5.89Z"/>
      <path class="large-leaf" d="M108.72,3.11c-2.62-.33-4.98,2.93-5.94,4.98-2.88,6.17.56,15.24,3.88,15.53,3.31.29,8.11-7.99,6.52-14.62-.1-.42-1.38-5.5-4.46-5.89Z"/>
      <path class="large-leaf" d="M135.83.13c-2.52-.78-5.41,2.02-6.71,3.87-3.9,5.58-2.1,15.1,1.12,15.97,3.21.86,9.38-6.46,8.96-13.26-.03-.43-.41-5.66-3.37-6.57Z"/>
      <path class="large-leaf" d="M164.44.49c-2.52-.78-5.41,2.02-6.71,3.87-3.9,5.58-2.1,15.1,1.12,15.97,3.21.86,9.38-6.46,8.96-13.26-.03-.43-.41-5.66-3.37-6.57Z"/>
      <path class="large-leaf" d="M184.75,4.7c-2.62-.33-4.98,2.93-5.94,4.98-2.88,6.17.56,15.24,3.88,15.53,3.31.29,8.11-7.99,6.52-14.62-.1-.42-1.38-5.5-4.46-5.89Z"/>
      <path class="large-leaf" d="M208.25,23.49c-2.63.13-4.4,3.75-4.98,5.94-1.76,6.58,3.19,14.91,6.52,14.62,3.31-.29,6.6-9.28,3.88-15.53-.17-.39-2.32-5.18-5.42-5.03Z"/>
      <path class="large-leaf" d="M241.22,53.52c-2.52-.78-5.41,2.02-6.71,3.87-3.9,5.58-2.1,15.1,1.12,15.97,3.21.86,9.38-6.46,8.96-13.26-.03-.43-.41-5.66-3.37-6.57Z"/>
      <path class="large-leaf" d="M260.87,87.08c-2.34-1.21-5.68,1.05-7.28,2.65-4.81,4.82-4.69,14.51-1.67,15.92,3.01,1.4,10.36-4.73,11.12-11.51.05-.42.58-5.64-2.18-7.06Z"/>
    </g>
  </g>
  <path class="small-leaf" d="M221.35,115c-1.06-.54-2.56.47-3.28,1.19-2.17,2.17-2.11,6.53-.75,7.17,1.36.63,4.66-2.13,5.01-5.18.02-.19.26-2.54-.98-3.18Z"/>
  <path class="small-leaf" d="M210.98,120.48c-1.06-.54-2.56.47-3.28,1.19-2.17,2.17-2.11,6.53-.75,7.17,1.36.63,4.66-2.13,5.01-5.18.02-.19.26-2.54-.98-3.18Z"/>
  <path class="small-leaf" d="M200.4,124.45c-1.06-.54-2.56.47-3.28,1.19-2.17,2.17-2.11,6.53-.75,7.17,1.36.63,4.66-2.13,5.01-5.18.02-.19.26-2.54-.98-3.18Z"/>
  <path class="small-leaf" d="M190.88,128.15c-1.06-.54-2.56.47-3.28,1.19-2.17,2.17-2.11,6.53-.75,7.17,1.36.63,4.66-2.13,5.01-5.18.02-.19.26-2.54-.98-3.18Z"/>
  <path class="small-leaf" d="M231.35,109.63c-1.06-.54-2.56.47-3.28,1.19-2.17,2.17-2.11,6.53-.75,7.17,1.36.63,4.66-2.13,5.01-5.18.02-.19.26-2.54-.98-3.18Z"/>
  <path class="small-leaf" d="M240.87,102.23c-1.06-.54-2.56.47-3.28,1.19-2.17,2.17-2.11,6.53-.75,7.17,1.36.63,4.66-2.13,5.01-5.18.02-.19.26-2.54-.98-3.18Z"/>
  <path class="small-leaf" d="M195.38,154.43c-1.06.54-2.56-.47-3.28-1.19-2.17-2.17-2.11-6.53-.75-7.17,1.36-.63,4.66,2.13,5.01,5.18.02.19.26,2.54-.98,3.18Z"/>
  <path class="small-leaf" d="M204.9,151.52c-1.06.54-2.56-.47-3.28-1.19-2.17-2.17-2.11-6.53-.75-7.17,1.36-.63,4.66,2.13,5.01,5.18.02.19.26,2.54-.98,3.18Z"/>
  <path class="small-leaf" d="M214.22,148.55c-1.06.54-2.56-.47-3.28-1.19-2.17-2.17-2.11-6.53-.75-7.17,1.36-.63,4.66,2.13,5.01,5.18.02.19.26,2.54-.98,3.18Z"/>
  <path class="small-leaf" d="M224.68,143.66c-1.06.54-2.56-.47-3.28-1.19-2.17-2.17-2.11-6.53-.75-7.17,1.36-.63,4.66,2.13,5.01,5.18.02.19.26,2.54-.98,3.18Z"/>
  <path class="small-leaf" d="M233.13,138.54c-1.06.54-2.56-.47-3.28-1.19-2.17-2.17-2.11-6.53-.75-7.17,1.36-.63,4.66,2.13,5.01,5.18.02.19.26,2.54-.98,3.18Z"/>
  <path class="small-leaf" d="M239.58,132.31c-1.06.54-2.56-.47-3.28-1.19-2.17-2.17-2.11-6.53-.75-7.17,1.36-.63,4.66,2.13,5.01,5.18.02.19.26,2.54-.98,3.18Z"/>
  <path class="small-leaf" d="M246.7,125.64c-1.06.54-2.56-.47-3.28-1.19-2.17-2.17-2.11-6.53-.75-7.17,1.36-.63,4.66,2.13,5.01,5.18.02.19.26,2.54-.98,3.18Z"/>
  <path class="small-leaf" d="M209.6,84.47c-1.06-.54-2.56.47-3.28,1.19-2.17,2.17-2.11,6.53-.75,7.17,1.36.63,4.66-2.13,5.01-5.18.02-.19.26-2.54-.98-3.18Z"/>
  <path class="small-leaf" d="M199.23,89.95c-1.06-.54-2.56.47-3.28,1.19-2.17,2.17-2.11,6.53-.75,7.17,1.36.63,4.66-2.13,5.01-5.18.02-.19.26-2.54-.98-3.18Z"/>
  <path class="small-leaf" d="M188.65,93.91c-1.06-.54-2.56.47-3.28,1.19-2.17,2.17-2.11,6.53-.75,7.17,1.36.63,4.66-2.13,5.01-5.18.02-.19.26-2.54-.98-3.18Z"/>
  <path class="small-leaf" d="M179.13,97.62c-1.06-.54-2.56.47-3.28,1.19-2.17,2.17-2.11,6.53-.75,7.17,1.36.63,4.66-2.13,5.01-5.18.02-.19.26-2.54-.98-3.18Z"/>
  <path class="small-leaf" d="M219.6,79.1c-1.06-.54-2.56.47-3.28,1.19-2.17,2.17-2.11,6.53-.75,7.17,1.36.63,4.66-2.13,5.01-5.18.02-.19.26-2.54-.98-3.18Z"/>
  <path class="small-leaf" d="M229.12,71.7c-1.06-.54-2.56.47-3.28,1.19-2.17,2.17-2.11,6.53-.75,7.17,1.36.63,4.66-2.13,5.01-5.18.02-.19.26-2.54-.98-3.18Z"/>
  <path class="small-leaf" d="M208.46,110.8c.06-1.19,1.69-1.98,2.67-2.24,2.96-.79,6.71,1.44,6.58,2.93-.13,1.49-4.18,2.97-6.99,1.75-.18-.08-2.33-1.04-2.26-2.44Z"/>
  <path class="small-leaf" d="M218.38,104.57c.06-1.19,1.69-1.98,2.67-2.24,2.96-.79,6.71,1.44,6.58,2.93-.13,1.49-4.18,2.97-6.99,1.75-.18-.08-2.33-1.04-2.26-2.44Z"/>
  <path class="small-leaf" d="M227.11,97.39c.06-1.19,1.69-1.98,2.67-2.24,2.96-.79,6.71,1.44,6.58,2.93-.13,1.49-4.18,2.97-6.99,1.75-.18-.08-2.33-1.04-2.26-2.44Z"/>
  <path class="small-leaf" d="M235.08,90.99c.06-1.19,1.69-1.98,2.67-2.24,2.96-.79,6.71,1.44,6.58,2.93-.13,1.49-4.18,2.97-6.99,1.75-.18-.08-2.33-1.04-2.26-2.44Z"/>
  <path class="small-leaf" d="M197.61,113.9c.06-1.19,1.69-1.98,2.67-2.24,2.96-.79,6.71,1.44,6.58,2.93-.13,1.49-4.18,2.97-6.99,1.75-.18-.08-2.33-1.04-2.26-2.44Z"/>
  <path class="small-leaf" d="M186.67,116.53c.06-1.19,1.69-1.98,2.67-2.24,2.96-.79,6.71,1.44,6.58,2.93-.13,1.49-4.18,2.97-6.99,1.75-.18-.08-2.33-1.04-2.26-2.44Z"/>
  <path class="small-leaf" d="M187.59,63.76c-1.06-.54-2.56.47-3.28,1.19-2.17,2.17-2.11,6.53-.75,7.17,1.36.63,4.66-2.13,5.01-5.18.02-.19.26-2.54-.98-3.18Z"/>
  <path class="small-leaf" d="M197.05,61.87c-1.06-.54-2.56.47-3.28,1.19-2.17,2.17-2.11,6.53-.75,7.17,1.36.63,4.66-2.13,5.01-5.18.02-.19.26-2.54-.98-3.18Z"/>
  <path class="small-leaf" d="M200.31,53.03c-1.19.06-1.98,1.69-2.24,2.67-.79,2.96,1.44,6.71,2.93,6.58,1.49-.13,2.97-4.18,1.75-6.99-.08-.18-1.04-2.33-2.44-2.26Z"/>
  <path class="small-leaf" d="M188.05,80.91c.06-1.19,1.69-1.98,2.67-2.24,2.96-.79,6.71,1.44,6.58,2.93-.13,1.49-4.18,2.97-6.99,1.75-.18-.08-2.33-1.04-2.26-2.44Z"/>
  <path class="small-leaf" d="M199.4,77.64c.06-1.19,1.69-1.98,2.67-2.24,2.96-.79,6.71,1.44,6.58,2.93-.13,1.49-4.18,2.97-6.99,1.75-.18-.08-2.33-1.04-2.26-2.44Z"/>
  <path class="small-leaf" d="M207.65,69.74c.06-1.19,1.69-1.98,2.67-2.24,2.96-.79,6.71,1.44,6.58,2.93-.13,1.49-4.18,2.97-6.99,1.75-.18-.08-2.33-1.04-2.26-2.44Z"/>
  <path class="small-leaf" d="M209.54,61.31c.06-1.19,1.69-1.98,2.67-2.24,2.96-.79,6.71,1.44,6.58,2.93-.13,1.49-4.18,2.97-6.99,1.75-.18-.08-2.33-1.04-2.26-2.44Z"/>
  <path class="small-leaf" d="M169.73,64.3c-1.18-.15-2.24,1.32-2.67,2.24-1.29,2.78.25,6.86,1.75,6.99,1.49.13,3.65-3.6,2.93-6.58-.04-.19-.62-2.48-2.01-2.65Z"/>
  <path class="small-leaf" d="M170.06,52.45c-1.09.46-1.28,2.26-1.19,3.28.27,3.05,3.65,5.82,5.01,5.18,1.35-.63,1.36-4.94-.75-7.17-.13-.14-1.78-1.83-3.06-1.29Z"/>
  <path class="small-leaf" d="M172.88,43.19c-1.09.46-1.28,2.26-1.19,3.28.27,3.05,3.65,5.82,5.01,5.18,1.35-.63,1.36-4.94-.75-7.17-.13-.14-1.78-1.83-3.06-1.29Z"/>
  <path class="small-leaf" d="M173.18,30.66c-1.09.46-1.28,2.26-1.19,3.28.27,3.05,3.65,5.82,5.01,5.18,1.35-.63,1.36-4.94-.75-7.17-.13-.14-1.78-1.83-3.06-1.29Z"/>
  <path class="small-leaf" d="M104.86,59c-1.09.46-1.28,2.26-1.19,3.28.27,3.05,3.65,5.82,5.01,5.18,1.35-.63,1.36-4.94-.75-7.17-.13-.14-1.78-1.83-3.06-1.29Z"/>
  <path class="small-leaf" d="M105.76,48.56c-1.09.46-1.28,2.26-1.19,3.28.27,3.05,3.65,5.82,5.01,5.18,1.35-.63,1.36-4.94-.75-7.17-.13-.14-1.78-1.83-3.06-1.29Z"/>
  <path class="small-leaf" d="M108.44,39.02c-1.09.46-1.28,2.26-1.19,3.28.27,3.05,3.65,5.82,5.01,5.18,1.35-.63,1.36-4.94-.75-7.17-.13-.14-1.78-1.83-3.06-1.29Z"/>
  <path class="small-leaf" d="M112.32,30.96c-1.09.46-1.28,2.26-1.19,3.28.27,3.05,3.65,5.82,5.01,5.18,1.35-.63,1.36-4.94-.75-7.17-.13-.14-1.78-1.83-3.06-1.29Z"/>
  <path class="small-leaf" d="M115.9,22.61c-1.09.46-1.28,2.26-1.19,3.28.27,3.05,3.65,5.82,5.01,5.18,1.35-.63,1.36-4.94-.75-7.17-.13-.14-1.78-1.83-3.06-1.29Z"/>
  <path class="small-leaf" d="M120.38,16.04c-1.09.46-1.28,2.26-1.19,3.28.27,3.05,3.65,5.82,5.01,5.18,1.35-.63,1.36-4.94-.75-7.17-.13-.14-1.78-1.83-3.06-1.29Z"/>
  <path class="small-leaf" d="M135.66,24.06c.72.95-.02,2.6-.61,3.43-1.76,2.51-6.07,3.21-6.93,1.98-.86-1.22,1.29-4.96,4.23-5.83.18-.05,2.46-.7,3.3.41Z"/>
  <path class="small-leaf" d="M132.13,31.87c.72.95-.02,2.6-.61,3.43-1.76,2.51-6.07,3.21-6.93,1.98-.86-1.22,1.29-4.96,4.23-5.83.18-.05,2.46-.7,3.3.41Z"/>
  <path class="small-leaf" d="M127.95,40.82c.72.95-.02,2.6-.61,3.43-1.76,2.51-6.07,3.21-6.93,1.98-.86-1.22,1.29-4.96,4.23-5.83.18-.05,2.46-.7,3.3.41Z"/>
  <path class="small-leaf" d="M125.56,50.37c.72.95-.02,2.6-.61,3.43-1.76,2.51-6.07,3.21-6.93,1.98-.86-1.22,1.29-4.96,4.23-5.83.18-.05,2.46-.7,3.3.41Z"/>
  <path class="small-leaf" d="M124.37,60.51c.72.95-.02,2.6-.61,3.43-1.76,2.51-6.07,3.21-6.93,1.98-.86-1.22,1.29-4.96,4.23-5.83.18-.05,2.46-.7,3.3.41Z"/>
  <path class="small-leaf" d="M149.02,25.89c-1.09.46-1.28,2.26-1.19,3.28.27,3.05,3.65,5.82,5.01,5.18,1.35-.63,1.36-4.94-.75-7.17-.13-.14-1.78-1.83-3.06-1.29Z"/>
  <path class="small-leaf" d="M146.93,35.44c-1.09.46-1.28,2.26-1.19,3.28.27,3.05,3.65,5.82,5.01,5.18,1.35-.63,1.36-4.94-.75-7.17-.13-.14-1.78-1.83-3.06-1.29Z"/>
  <path class="small-leaf" d="M147.52,44.68c-1.09.46-1.28,2.26-1.19,3.28.27,3.05,3.65,5.82,5.01,5.18,1.35-.63,1.36-4.94-.75-7.17-.13-.14-1.78-1.83-3.06-1.29Z"/>
  <path class="small-leaf" d="M148.72,54.53c-1.09.46-1.28,2.26-1.19,3.28.27,3.05,3.65,5.82,5.01,5.18,1.35-.63,1.36-4.94-.75-7.17-.13-.14-1.78-1.83-3.06-1.29Z"/>
  <path class="small-leaf" d="M150.21,65.27c-1.09.46-1.28,2.26-1.19,3.28.27,3.05,3.65,5.82,5.01,5.18,1.35-.63,1.36-4.94-.75-7.17-.13-.14-1.78-1.83-3.06-1.29Z"/>
  <path class="small-leaf" d="M164.52,25.14c1.09.46,1.28,2.26,1.19,3.28-.27,3.05-3.65,5.82-5.01,5.18-1.35-.63-1.36-4.94.75-7.17.13-.14,1.78-1.83,3.06-1.29Z"/>
  <path class="small-leaf" d="M163.95,34.24c1.09.46,1.28,2.26,1.19,3.28-.27,3.05-3.65,5.82-5.01,5.18-1.35-.63-1.36-4.94.75-7.17.13-.14,1.78-1.83,3.06-1.29Z"/>
  <path class="small-leaf" d="M164.25,43.79c1.09.46,1.28,2.26,1.19,3.28-.27,3.05-3.65,5.82-5.01,5.18-1.35-.63-1.36-4.94.75-7.17.13-.14,1.78-1.83,3.06-1.29Z"/>
  <path class="small-leaf" d="M165.44,53.34c1.09.46,1.28,2.26,1.19,3.28-.27,3.05-3.65,5.82-5.01,5.18-1.35-.63-1.36-4.94.75-7.17.13-.14,1.78-1.83,3.06-1.29Z"/>
  <path class="small-leaf" d="M93.79,72.41c-1.09.46-1.28,2.26-1.19,3.28.27,3.05,3.65,5.82,5.01,5.18,1.35-.63,1.36-4.94-.75-7.17-.13-.14-1.78-1.83-3.06-1.29Z"/>
  <path class="small-leaf" d="M92.49,60.57c-1.09.46-1.28,2.26-1.19,3.28.27,3.05,3.65,5.82,5.01,5.18,1.35-.63,1.36-4.94-.75-7.17-.13-.14-1.78-1.83-3.06-1.29Z"/>
  <path class="small-leaf" d="M90.87,49.71c-1.09.46-1.28,2.26-1.19,3.28.27,3.05,3.65,5.82,5.01,5.18,1.35-.63,1.36-4.94-.75-7.17-.13-.14-1.78-1.83-3.06-1.29Z"/>
  <path class="small-leaf" d="M91.84,39.01c-1.09.46-1.28,2.26-1.19,3.28.27,3.05,3.65,5.82,5.01,5.18,1.35-.63,1.36-4.94-.75-7.17-.13-.14-1.78-1.83-3.06-1.29Z"/>
  <path class="small-leaf" d="M94.92,28.14c-1.09.46-1.28,2.26-1.19,3.28.27,3.05,3.65,5.82,5.01,5.18,1.35-.63,1.36-4.94-.75-7.17-.13-.14-1.78-1.83-3.06-1.29Z"/>
  <path class="small-leaf" d="M54,98.24c-1,.64-.87,2.45-.61,3.43.79,2.96,4.6,5.09,5.83,4.23,1.22-.86.49-5.1-1.98-6.93-.15-.11-2.07-1.5-3.24-.74Z"/>
  <path class="small-leaf" d="M50.69,87.07c-1,.64-.87,2.45-.61,3.43.79,2.96,4.6,5.09,5.83,4.23,1.22-.86.49-5.1-1.98-6.93-.15-.11-2.07-1.5-3.24-.74Z"/>
  <path class="small-leaf" d="M49.71,76.05c-1,.64-.87,2.45-.61,3.43.79,2.96,4.6,5.09,5.83,4.23,1.22-.86.49-5.1-1.98-6.93-.15-.11-2.07-1.5-3.24-.74Z"/>
  <path class="small-leaf" d="M51.5,66.32c-1,.64-.87,2.45-.61,3.43.79,2.96,4.6,5.09,5.83,4.23,1.22-.86.49-5.1-1.98-6.93-.15-.11-2.07-1.5-3.24-.74Z"/>
  <path class="small-leaf" d="M69.48,67.61c1,.64.87,2.45.61,3.43-.79,2.96-4.6,5.09-5.83,4.23-1.22-.86-.49-5.1,1.98-6.93.15-.11,2.07-1.5,3.24-.74Z"/>
  <path class="small-leaf" d="M70.08,76.05c1,.64.87,2.45.61,3.43-.79,2.96-4.6,5.09-5.83,4.23-1.22-.86-.49-5.1,1.98-6.93.15-.11,2.07-1.5,3.24-.74Z"/>
  <path class="small-leaf" d="M70.73,84.8c1,.64.87,2.45.61,3.43-.79,2.96-4.6,5.09-5.83,4.23-1.22-.86-.49-5.1,1.98-6.93.15-.11,2.07-1.5,3.24-.74Z"/>
  <path class="small-leaf" d="M73.49,92.91c1,.64.87,2.45.61,3.43-.79,2.96-4.6,5.09-5.83,4.23-1.22-.86-.49-5.1,1.98-6.93.15-.11,2.07-1.5,3.24-.74Z"/>
  <path class="small-leaf" d="M42.2,76.86c1.16.26,1.66,2.01,1.74,3.02.27,3.05-2.58,6.36-4.03,5.97-1.44-.39-2.2-4.63-.51-7.19.11-.16,1.43-2.11,2.79-1.8Z"/>
  <path class="small-leaf" d="M46.22,84.8c1.16.26,1.66,2.01,1.74,3.02.27,3.05-2.58,6.36-4.03,5.97-1.44-.39-2.2-4.63-.51-7.19.11-.16,1.43-2.11,2.79-1.8Z"/>
  <path class="small-leaf" d="M28.31,82.33c-1,.64-.87,2.45-.61,3.43.79,2.96,4.6,5.09,5.83,4.23,1.22-.86.49-5.1-1.98-6.93-.15-.11-2.07-1.5-3.24-.74Z"/>
  <path class="small-leaf" d="M29.3,91.78c-.87.81-.43,2.56,0,3.49,1.3,2.78,5.42,4.22,6.48,3.16,1.06-1.06-.41-5.11-3.16-6.48-.17-.09-2.3-1.11-3.32-.17Z"/>
  <path class="small-leaf" d="M33.54,99.74c-.87.81-.43,2.56,0,3.49,1.3,2.78,5.42,4.22,6.48,3.16,1.06-1.06-.41-5.11-3.16-6.48-.17-.09-2.3-1.11-3.32-.17Z"/>
  <path class="small-leaf" d="M38.04,107.64c-.72.95.02,2.6.61,3.43,1.76,2.51,6.07,3.21,6.93,1.98.86-1.22-1.29-4.96-4.23-5.83-.18-.05-2.46-.7-3.3.41Z"/>
  <path class="small-leaf" d="M27.01,157.04c-.54,1.06.47,2.56,1.19,3.28,2.17,2.17,6.53,2.11,7.17.75.63-1.36-2.13-4.66-5.18-5.01-.19-.02-2.54-.26-3.18.98Z"/>
  <path class="small-leaf" d="M33.94,152.72c-.54,1.06.47,2.56,1.19,3.28,2.17,2.17,6.53,2.11,7.17.75.63-1.36-2.13-4.66-5.18-5.01-.19-.02-2.54-.26-3.18.98Z"/>
  <path class="small-leaf" d="M41.25,148.12c-.54,1.06.47,2.56,1.19,3.28,2.17,2.17,6.53,2.11,7.17.75.63-1.36-2.13-4.66-5.18-5.01-.19-.02-2.54-.26-3.18.98Z"/>
  <path class="small-leaf" d="M49.1,144.06c-.54,1.06.47,2.56,1.19,3.28,2.17,2.17,6.53,2.11,7.17.75.63-1.36-2.13-4.66-5.18-5.01-.19-.02-2.54-.26-3.18.98Z"/>
  <path class="small-leaf" d="M58.03,139.46c-.54,1.06.47,2.56,1.19,3.28,2.17,2.17,6.53,2.11,7.17.75.63-1.36-2.13-4.66-5.18-5.01-.19-.02-2.54-.26-3.18.98Z"/>
  <path class="small-leaf" d="M67.77,137.02c-.54,1.06.47,2.56,1.19,3.28,2.17,2.17,6.53,2.11,7.17.75.63-1.36-2.13-4.66-5.18-5.01-.19-.02-2.54-.26-3.18.98Z"/>
  <path class="small-leaf" d="M38.92,172.38c.87.81.43,2.56,0,3.49-1.3,2.78-5.42,4.22-6.48,3.16-1.06-1.06.41-5.11,3.16-6.48.17-.09,2.3-1.11,3.32-.17Z"/>
  <path class="small-leaf" d="M47.72,167.68c.87.81.43,2.56,0,3.49-1.3,2.78-5.42,4.22-6.48,3.16-1.06-1.06.41-5.11,3.16-6.48.17-.09,2.3-1.11,3.32-.17Z"/>
  <path class="small-leaf" d="M59.08,160.64c.87.81.43,2.56,0,3.49-1.3,2.78-5.42,4.22-6.48,3.16-1.06-1.06.41-5.11,3.16-6.48.17-.09,2.3-1.11,3.32-.17Z"/>
  <path class="small-leaf" d="M69.91,155.5c.87.81.43,2.56,0,3.49-1.3,2.78-5.42,4.22-6.48,3.16-1.06-1.06.41-5.11,3.16-6.48.17-.09,2.3-1.11,3.32-.17Z"/>
  <path class="small-leaf" d="M79.65,151.98c.87.81.43,2.56,0,3.49-1.3,2.78-5.42,4.22-6.48,3.16-1.06-1.06.41-5.11,3.16-6.48.17-.09,2.3-1.11,3.32-.17Z"/>
</svg>