<?xml version="1.0" encoding="UTF-8"?><svg id="Layer_1" xmlns="http://www.w3.org/2000/svg" viewBox="0 0 264.42 309"><defs><style>.cls-1{fill:#bce6fb;}.cls-2{fill:#4991ce;}</style></defs><path class="cls-2" d="M29.69,234.1c-1.41-.89,5.84-23.12,24.96-40.85,6.09-5.65,30.43-28.22,57.31-24.1,31.29,4.79,31.82,40.51,60.12,42.94,23.97,2.06,51.9-21.2,62.03-43.89,3.04-6.82,4.25-13.08,5.25-12.88,2.12.42,5.19,30.11-10.5,53.91-14.05,21.32-42.96,37.44-66.8,31.49-27.06-6.76-24.49-37.48-55.35-44.85-21.81-5.21-41.94,4.79-46.28,7.16-21.28,11.62-29.37,31.94-30.75,31.07Z"/><path class="cls-1" d="M33.66,249.61c-1.04-.83,4.19-9.44,7.31-13.78,10.6-14.74,33.5-31.17,55.19-29.16,28.59,2.64,28.43,34.17,60.12,42.94,26.95,7.46,58.82-6.65,74.63-26.86,20.86-26.67,12.81-62.78,15.13-62.78,2.33,0,13.93,36.59-2.27,69.59-18.24,37.17-67.83,61.87-97.51,48.68-28.74-12.77-24.03-54.51-50-58.51-15.04-2.32-37.97,8.39-51.63,20.82-3.88,3.53-9.96,9.87-10.97,9.07Z"/><path class="cls-2" d="M35.06,257.99c-1.03-1.56,8.41-10.44,19.75-17.55,13.72-8.61,30.04-18.86,43.34-13.71,12.79,4.95,9.76,19.11,26.33,37.85,2.89,3.27,16.17,18.29,33.46,23.04,32.91,9.04,74.09-20.87,91.07-54.86,16.29-32.61,8.15-64.72,9.33-64.73,1.46-.02,17.04,49.7-8.23,92.16-1.56,2.63-30.02,48.73-80.09,48.82-20.33.04-52.11-7.49-64.73-30.17-9.6-17.24-1.7-31.69-11.52-38.4-16.98-11.6-56.65,20.68-58.7,17.55Z"/><path class="cls-2" d="M96.49,184.67c15.37,2.64,28.63-3.33,32.69-13.08,2.55-6.1,1.99-15.03-3.19-20.47-3.83-4.03-8.65-4.49-18.25-5.42-12.37-1.19-21.51.95-28.5,2.65-13.59,3.31-54.1,27.08-54.12,27.06-.42-.49,14.28-18.76,39.08-28.23,4.17-1.59,7.07-2.34,12.77-3.81,29.64-7.66,52.27-6.78,52.26-8.34,0-1.82-27.59-.09-58.98-12.82-12.03-4.88-19.7-9.89-25.7-17.45-9.33-11.77-10.76-24.95-10.59-25.02.56-.2,2.78,7.09,9.47,15.78,8.46,11,20.05,18.97,22.19,17.13,1.88-1.61-5.58-9.03-7.44-23.15-1.59-12.07,1.87-21.65,2.97-21.65.99,0-2.5,26.44,11.04,42.73,1.48,1.78,4.25,4.82,8.71,7.45,6.22,3.67,12.37,3.92,21.35,4.18,9.47.27,9.7-1.03,18.42-.48,9.12.57,13.45,2.29,14.06.97.83-1.79-7.04-5.33-15.03-14.06-5.36-5.85-7.87-11.16-12.61-20.85-3.97-8.12-7.01-14.35-8.73-23.43-1.98-10.48-.77-17.18-.22-19.68.51-2.34,1.24-4.59,1.57-5.59,2.1-6.45,5.07-12.49,5.59-12.3.52.19-1.73,6.48-2.91,11.63-4.84,21.28,4.23,42.84,7.16,42.5,3.13-.36-2.74-25.5,11.64-48.53,2.63-4.22,7.4-10.36,7.74-10.14.21.14-1.35,2.7-5.21,10.31-.96,1.9-1.66,3.3-2.09,4.17-2.76,5.62-4.15,8.43-4.94,10.76-.33.96-1.31,3.99-1.77,9.94-.31,3.89-2.59,24.08,7.63,39.77,4.17,6.41,2.24,4.49,15.73,16.02,9.4,8.03,11.76,7.9,12.93,7.55,4.37-1.3,4.47-8.53,7.44-19.45,2.04-7.49,2.5-5.89,3.09-9.54,1.42-8.8-2.13-12.75-5.24-27.8-1.03-4.97-1.75-8.47-2.01-13.29-.75-13.65,2.87-25.09,3.63-24.98.57.08-.82,6.67-.61,16.52.37,17.46,5.71,37.86,10.68,37.86,4.82,0,8.66-19.21,9.5-23.39,3.05-15.27,1.62-26.75,3.39-26.96,1.16-.14,3.15,4.61,4.03,9.67,2.91,16.84-9.74,29.94-5.64,33.84,1.13,1.08,3.71.72,8.86,0,3.35-.47,8.03-1.12,11.28-3.22,8.76-5.67,6.56-21.51,7.85-21.49,1.22.02,5.39,14.22-1.45,21.82-2.79,3.1-5.11,2.53-15.51,6.3-11.66,4.22-17.54,6.43-20.28,11.5-2.95,5.45-2.55,13.72,1.9,17.47,2.73,2.31,6.26,2.28,8.98,2.26,5.56-.04,9.68-2.29,14.9-5.24,3.37-1.9,25.32-6.67,31.83-14.37,5.09-6.02,6.13-12.19,6.3-12.12.26.1-1.01,13.9-10.85,22.73-3.77,3.38-9.82,5.17-21.82,8.89-11.97,3.71-17.22,4.11-22.34,9.49-4.17,4.38-5.33,8.35-5.54,9.24-1.31,5.48.06,12.12,2.68,14.57,11.32,10.55,68.97-36.18,70.36-34.34,1.35,1.79-22.22,37.55-55.88,40.73-9.19.87-21.71-.45-30.47,8.33-4.74,4.75-6.25,10.34-7.54,15.08-2.52,9.31-5.46,30.68,4.89,39.21,14.7,12.11,48.28-8.39,50.45-3.54,1.01,2.27-5.15,7.24-9.32,9.74-17.55,10.5-38.29.17-40.67-1.07"/><path class="cls-1" d="M22.73,175.47c-1.79-1.94-5.7-.96-7.75,0-6.17,2.88-9.37,12.03-7.01,14.39,2.35,2.35,11.35-.91,14.39-7.01.19-.38,2.47-5.1.37-7.38Z"/><path class="cls-1" d="M19.58,162.12c-.81-2.51-4.76-3.28-7.02-3.27-6.81,0-13.58,6.94-12.43,10.08,1.14,3.12,10.67,3.98,16-.27.33-.27,4.4-3.58,3.45-6.53Z"/><path class="cls-1" d="M17.14,63.27c-1.94,1.79-.96,5.7,0,7.75,2.88,6.17,12.03,9.37,14.39,7.01,2.35-2.35-.91-11.35-7.01-14.39-.38-.19-5.1-2.47-7.38-.37Z"/><path class="cls-1" d="M62.74,42.45c-2.62-.33-4.98,2.93-5.94,4.98-2.88,6.17.56,15.24,3.88,15.53,3.31.29,8.11-7.99,6.52-14.62-.1-.42-1.38-5.5-4.46-5.89Z"/><path class="cls-1" d="M108.72,3.11c-2.62-.33-4.98,2.93-5.94,4.98-2.88,6.17.56,15.24,3.88,15.53,3.31.29,8.11-7.99,6.52-14.62-.1-.42-1.38-5.5-4.46-5.89Z"/><path class="cls-1" d="M135.83.13c-2.52-.78-5.41,2.02-6.71,3.87-3.9,5.58-2.1,15.1,1.12,15.97,3.21.86,9.38-6.46,8.96-13.26-.03-.43-.41-5.66-3.37-6.57Z"/><path class="cls-1" d="M164.44.49c-2.52-.78-5.41,2.02-6.71,3.87-3.9,5.58-2.1,15.1,1.12,15.97,3.21.86,9.38-6.46,8.96-13.26-.03-.43-.41-5.66-3.37-6.57Z"/><path class="cls-1" d="M184.75,4.7c-2.62-.33-4.98,2.93-5.94,4.98-2.88,6.17.56,15.24,3.88,15.53,3.31.29,8.11-7.99,6.52-14.62-.1-.42-1.38-5.5-4.46-5.89Z"/><path class="cls-1" d="M208.25,23.49c-2.63.13-4.4,3.75-4.98,5.94-1.76,6.58,3.19,14.91,6.52,14.62,3.31-.29,6.6-9.28,3.88-15.53-.17-.39-2.32-5.18-5.42-5.03Z"/><path class="cls-1" d="M241.22,53.52c-2.52-.78-5.41,2.02-6.71,3.87-3.9,5.58-2.1,15.1,1.12,15.97,3.21.86,9.38-6.46,8.96-13.26-.03-.43-.41-5.66-3.37-6.57Z"/><path class="cls-1" d="M260.87,87.08c-2.34-1.21-5.68,1.05-7.28,2.65-4.81,4.82-4.69,14.51-1.67,15.92,3.01,1.4,10.36-4.73,11.12-11.51.05-.42.58-5.64-2.18-7.06Z"/></svg>