<?xml version="1.0" encoding="UTF-8"?>
<svg xmlns="http://www.w3.org/2000/svg" version="1.1" viewBox="0 0 266.9 305.9">
  <defs>
    <style>
      .cls-1 {
        fill: #bce6fb;
      }

      .cls-2 {
        fill: #4991ce;
      }
    </style>
  </defs>
  <!-- Generator: Adobe Illustrator 28.6.0, SVG Export Plug-In . SVG Version: 1.2.0 Build 709)  -->
  <g>
    <g id="Layer_1">
      <g>
        <path class="cls-2" d="M96.5,184.7c1,0,19.6.9,27.9-12.4,3.4-5.4,6.2-15.2,1.6-21.1-3.3-4.3-8.9-4.6-18.2-5.4-3.9-.3-11.4-.6-22.5,1.8-9.8,2.1-16.7,5.1-23.3,8.1-11.5,5.1-25.2,12.7-34.6,18.6-1.7,1.1-2.2,1.4-2.3,1.3-.4-.5,14.3-18.8,39.1-28.2,1.1-.4,2-.8,3-1.1,0,0,4.8-1.6,9.8-2.7,9.7-2.2,45.7-6.1,45.8-8.7,0-2.1-24-.6-52.5-12.4-15-6.2-21.5-12.1-25.7-17.4-9.3-11.8-10.8-24.9-10.6-25,.6-.2,2.8,7.1,9.5,15.8,8.5,11,20,19,22.2,17.1,1.9-1.6-5.6-9-7.4-23.2-1.6-12.1,1.9-21.7,3-21.7s-2.5,26.4,11,42.7c.9,1.1,2.2,2.5,4.1,4.1,0,0,2.1,1.8,4.7,3.3,6.3,3.8,41.3,10.4,44.3,1.5.5-1.6-.3-2.6-5.5-10.9-6.5-10.3-10.2-15.8-12.6-20.8-4-8.1-7-14.3-8.7-23.4-2-10.5-.8-17.2-.2-19.7.5-2.3,1.2-4.6,1.6-5.6,2.1-6.5,5.1-12.5,5.6-12.3.5.2-1.7,6.5-2.9,11.6-4.8,21.3,4.2,42.8,7.2,42.5,3.1-.4-2.7-25.5,11.6-48.5,2.6-4.2,7.4-10.4,7.7-10.1.2.1-1.3,2.7-5.2,10.3-1,1.9-1.7,3.3-2.1,4.2-2.8,5.6-4.2,8.4-4.9,10.8-.3,1-1.3,4-1.8,9.9-1.9,24,7.6,39.7,7.6,39.8h0c3.3,5.5,12.6,21,22.4,20.3,9-.6,16.1-15,16.8-25.8,0-1,.1-1.8,0-2.8-.2-3.8-1.7-7.6-5.3-25-1-5-1.8-8.5-2-13.3-.8-13.7,2.9-25.1,3.6-25,.6,0-.8,6.7-.6,16.5.4,17.5,5.7,37.9,10.7,37.9s8.7-19.2,9.5-23.4c2.9-14.8,2.4-26.9,3.4-27,.6,0,1.2,4.3,1.4,7.4.5,5.4,1.4,15.2-1.9,27.2-1.3,4.6-2.6,7.3-1.1,8.9.5.5,1.6,1,8.9,0,3.4-.5,8-1.1,11.3-3.2,8.6-5.6,6.5-21.5,7.9-21.5.7,0,1.3,4.5,1.2,8.8-.2,4-.4,10.3-4.1,14.4-3.8,4.2-7.9,2.7-14,4.9-13.8,5.2-22.3,24.3-18.4,29,.7.8,2.1,1.6,11.8-.3,16.6-3.3,30.8-6.1,41.9-18,5.6-6,7.8-11.5,8.4-11.2.9.5-1.4,13.7-10.9,22.7-11.8,11.3-32.1,13.6-47,15.2-1.7.2-4.6.3-8.2,1.6-10.5,4-19.3,15.5-16.8,21.1,2.8,6.4,19.6,4.7,25,4.1,41.5-4.2,69.5-35.3,70.4-34.3.7.8-17.3,26.4-46.3,35.1-24.9,7.5-37.4,11.2-37.8,11.3-2.6.2-8.3.2-11.3,4-.8,1-3,4.4-.1,14.6,4.6,16.4,15.5,26.2,16.7,27.2,5.5,4.8,14.6,12.8,25.9,11.9,7.9-.6,13.6-5.4,14.3-4.3.7,1.1-4.2,6.6-9.3,9.7-13.2,8.1-30.8,2.9-40.7-1.1"/>
        <path class="cls-1" d="M22.7,175.5c-1.8-1.9-5.7-1-7.8,0-6.2,2.9-9.4,12-7,14.4,2.4,2.4,11.4-.9,14.4-7,.2-.4,2.5-5.1.4-7.4Z"/>
        <path class="cls-1" d="M19.6,162.1c-.8-2.5-4.8-3.3-7-3.3-6.8,0-13.6,6.9-12.4,10.1,1.1,3.1,10.7,4,16-.3.3-.3,4.4-3.6,3.5-6.5h0Z"/>
        <path class="cls-1" d="M17.1,63.3c-1.9,1.8-1,5.7,0,7.8,2.9,6.2,12,9.4,14.4,7s-.9-11.3-7-14.4c-.4-.2-5.1-2.5-7.4-.4Z"/>
        <path class="cls-1" d="M62.7,42.5c-2.6-.3-5,2.9-5.9,5-2.9,6.2.6,15.2,3.9,15.5,3.3.3,8.1-8,6.5-14.6,0-.4-1.4-5.5-4.5-5.9Z"/>
        <path class="cls-1" d="M108.7,3.1c-2.6-.3-5,2.9-5.9,5-2.9,6.2.6,15.2,3.9,15.5,3.3.3,8.1-8,6.5-14.6,0-.4-1.4-5.5-4.5-5.9Z"/>
        <path class="cls-1" d="M135.8.1c-2.5-.8-5.4,2-6.7,3.9-3.9,5.6-2.1,15.1,1.1,16,3.2.9,9.4-6.5,9-13.3,0-.4-.4-5.7-3.4-6.6h0Z"/>
        <path class="cls-1" d="M164.4.5c-2.5-.8-5.4,2-6.7,3.9-3.9,5.6-2.1,15.1,1.1,16,3.2.9,9.4-6.5,9-13.3,0-.4-.4-5.7-3.4-6.6h0Z"/>
        <path class="cls-1" d="M184.8,4.7c-2.6-.3-5,2.9-5.9,5-2.9,6.2.6,15.2,3.9,15.5,3.3.3,8.1-8,6.5-14.6-.1-.4-1.4-5.5-4.5-5.9Z"/>
        <path class="cls-1" d="M208.2,23.5c-2.6.1-4.4,3.8-5,5.9-1.8,6.6,3.2,14.9,6.5,14.6,3.3-.3,6.6-9.3,3.9-15.5-.2-.4-2.3-5.2-5.4-5h0Z"/>
        <path class="cls-1" d="M241.2,53.5c-2.5-.8-5.4,2-6.7,3.9-3.9,5.6-2.1,15.1,1.1,16,3.2.9,9.4-6.5,9-13.3,0-.4-.4-5.7-3.4-6.6h0Z"/>
        <path class="cls-1" d="M260.9,87.1c-2.3-1.2-5.7,1.1-7.3,2.7-4.8,4.8-4.7,14.5-1.7,15.9,3,1.4,10.4-4.7,11.1-11.5,0-.4.6-5.6-2.2-7.1h0Z"/>
      </g>
    </g>
  </g>
</svg>